<svg width="142" height="52" viewBox="0 0 142 52" fill="none" xmlns="http://www.w3.org/2000/svg">
<path d="M12.1265 14.1094V16.7109C12.1265 18.1094 12.0015 19.2891 11.7515 20.25C11.5015 21.2109 11.1421 21.9844 10.6733 22.5703C10.2046 23.1562 9.63818 23.582 8.97412 23.8477C8.31787 24.1055 7.57568 24.2344 6.74756 24.2344C6.09131 24.2344 5.48584 24.1523 4.93115 23.9883C4.37646 23.8242 3.87646 23.5625 3.43115 23.2031C2.99365 22.8359 2.61865 22.3594 2.30615 21.7734C1.99365 21.1875 1.75537 20.4766 1.59131 19.6406C1.42725 18.8047 1.34521 17.8281 1.34521 16.7109V14.1094C1.34521 12.7109 1.47021 11.5391 1.72021 10.5938C1.97803 9.64844 2.34131 8.89062 2.81006 8.32031C3.27881 7.74219 3.84131 7.32812 4.49756 7.07812C5.16162 6.82813 5.90381 6.70312 6.72412 6.70312C7.38818 6.70312 7.99756 6.78516 8.55225 6.94922C9.11475 7.10547 9.61475 7.35938 10.0522 7.71094C10.4897 8.05469 10.8608 8.51562 11.1655 9.09375C11.478 9.66406 11.7163 10.3633 11.8804 11.1914C12.0444 12.0195 12.1265 12.9922 12.1265 14.1094ZM9.94678 17.0625V13.7461C9.94678 12.9805 9.8999 12.3086 9.80615 11.7305C9.72021 11.1445 9.59131 10.6445 9.41943 10.2305C9.24756 9.81641 9.02881 9.48047 8.76318 9.22266C8.50537 8.96484 8.20459 8.77734 7.86084 8.66016C7.5249 8.53516 7.146 8.47266 6.72412 8.47266C6.2085 8.47266 5.75146 8.57031 5.35303 8.76562C4.95459 8.95312 4.61865 9.25391 4.34521 9.66797C4.07959 10.082 3.87646 10.625 3.73584 11.2969C3.59521 11.9688 3.5249 12.7852 3.5249 13.7461V17.0625C3.5249 17.8281 3.56787 18.5039 3.65381 19.0898C3.74756 19.6758 3.88428 20.1836 4.06396 20.6133C4.24365 21.0352 4.4624 21.3828 4.72021 21.6562C4.97803 21.9297 5.2749 22.1328 5.61084 22.2656C5.95459 22.3906 6.3335 22.4531 6.74756 22.4531C7.27881 22.4531 7.74365 22.3516 8.14209 22.1484C8.54053 21.9453 8.87256 21.6289 9.13818 21.1992C9.41162 20.7617 9.61475 20.2031 9.74756 19.5234C9.88037 18.8359 9.94678 18.0156 9.94678 17.0625ZM8.54053 30.8438V48H6.37256V33.5508L2.00146 35.1445V33.1875L8.20068 30.8438H8.54053Z" fill="#BDBDBD"/>
<path d="M125.018 16.7227C125.018 19.2617 124.585 21.1484 123.718 22.3828C122.85 23.6172 121.495 24.2344 119.651 24.2344C117.831 24.2344 116.483 23.6328 115.608 22.4297C114.733 21.2188 114.28 19.4141 114.249 17.0156V14.1211C114.249 11.6133 114.682 9.75 115.55 8.53125C116.417 7.3125 117.776 6.70312 119.628 6.70312C121.464 6.70312 122.815 7.29297 123.682 8.47266C124.55 9.64453 124.995 11.457 125.018 13.9102V16.7227ZM122.85 13.7578C122.85 11.9219 122.593 10.5859 122.077 9.75C121.561 8.90625 120.745 8.48438 119.628 8.48438C118.518 8.48438 117.71 8.90234 117.202 9.73828C116.694 10.5742 116.432 11.8594 116.417 13.5938V17.0625C116.417 18.9062 116.682 20.2695 117.214 21.1523C117.753 22.0273 118.565 22.4648 119.651 22.4648C120.721 22.4648 121.514 22.0508 122.03 21.2227C122.553 20.3945 122.827 19.0898 122.85 17.3086V13.7578ZM138.975 24H127.796V22.4414L133.702 15.8789C134.577 14.8867 135.178 14.082 135.507 13.4648C135.843 12.8398 136.01 12.1953 136.01 11.5312C136.01 10.6406 135.741 9.91016 135.202 9.33984C134.663 8.76953 133.944 8.48438 133.046 8.48438C131.968 8.48438 131.128 8.79297 130.526 9.41016C129.932 10.0195 129.635 10.8711 129.635 11.9648H127.468C127.468 10.3945 127.971 9.125 128.979 8.15625C129.995 7.1875 131.35 6.70312 133.046 6.70312C134.632 6.70312 135.885 7.12109 136.807 7.95703C137.729 8.78516 138.19 9.89062 138.19 11.2734C138.19 12.9531 137.12 14.9531 134.979 17.2734L130.409 22.2305H138.975V24Z" fill="#BDBDBD"/>
<line y1="-1" x2="43.8219" y2="-1" transform="matrix(-0.706805 0.707408 -0.706805 -0.707408 80.9285 0)" stroke="#E0E0E0" stroke-width="2"/>
</svg>
